<svg xmlns="http://www.w3.org/2000/svg" viewBox="0 0 7200 4000" width="97" height="54" role="img" aria-label="Anschrift"><g fill="#474b57"><path transform="translate(-1,1032) scale(1,-1) rotate(0.77)" d="M436 317H164V0H80V698H164V390H436V698H520V0H436Z"/><path transform="translate(604,1031) scale(1,-1) rotate(0.45)" d="M495 0Q448 0 428.0 24.0Q408 48 403 84H398Q381 39 343.5 13.5Q306 -12 243 -12Q162 -12 114.0 30.0Q66 72 66 145Q66 217 118.5 256.0Q171 295 288 295H398V346Q398 403 366.0 431.5Q334 460 275 460Q223 460 190.0 439.5Q157 419 137 384L83 424Q93 444 110.0 463.0Q127 482 152.0 496.5Q177 511 209.0 519.5Q241 528 280 528Q371 528 424.5 482.0Q478 436 478 354V70H550V0ZM257 55Q288 55 313.5 62.5Q339 70 358.0 82.5Q377 95 387.5 112.5Q398 130 398 150V235H288Q216 235 183.0 215.0Q150 195 150 157V136Q150 96 178.5 75.5Q207 55 257 55Z"/><path transform="translate(1196,1018) scale(1,-1) rotate(-0.07)" d="M98 0V516H178V432H182Q190 451 202.0 468.5Q214 486 231.5 499.0Q249 512 273.0 520.0Q297 528 329 528Q410 528 459.0 476.5Q508 425 508 331V0H428V317Q428 388 397.0 422.5Q366 457 306 457Q282 457 259.0 451.0Q236 445 218.0 433.0Q200 421 189.0 402.0Q178 383 178 358V0Z"/><path transform="translate(1795,1019) scale(1,-1) rotate(0.51)" d="M306 -12Q225 -12 166.5 15.5Q108 43 67 89L121 136Q158 97 202.0 76.0Q246 55 308 55Q368 55 406.5 76.5Q445 98 445 144Q445 164 437.5 177.5Q430 191 417.0 199.0Q404 207 388.0 211.5Q372 216 354 219L273 231Q246 235 214.5 242.0Q183 249 157.0 264.5Q131 280 113.5 306.0Q96 332 96 374Q96 413 111.5 441.5Q127 470 155.0 489.5Q183 509 221.0 518.5Q259 528 304 528Q374 528 425.5 506.0Q477 484 514 445L462 396Q453 407 439.5 418.5Q426 430 406.5 439.5Q387 449 361.0 455.0Q335 461 301 461Q240 461 207.5 440.0Q175 419 175 379Q175 359 182.5 345.5Q190 332 203.0 324.0Q216 316 232.5 311.5Q249 307 266 304L347 292Q375 288 406.0 281.0Q437 274 463.0 258.5Q489 243 506.5 217.0Q524 191 524 149Q524 72 464.5 30.0Q405 -12 306 -12Z"/><path transform="translate(2398,1028) scale(1,-1) rotate(0.01)" d="M495 0Q448 0 428.0 24.0Q408 48 403 84H398Q381 39 343.5 13.5Q306 -12 243 -12Q162 -12 114.0 30.0Q66 72 66 145Q66 217 118.5 256.0Q171 295 288 295H398V346Q398 403 366.0 431.5Q334 460 275 460Q223 460 190.0 439.5Q157 419 137 384L83 424Q93 444 110.0 463.0Q127 482 152.0 496.5Q177 511 209.0 519.5Q241 528 280 528Q371 528 424.5 482.0Q478 436 478 354V70H550V0ZM257 55Q288 55 313.5 62.5Q339 70 358.0 82.5Q377 95 387.5 112.5Q398 130 398 150V235H288Q216 235 183.0 215.0Q150 195 150 157V136Q150 96 178.5 75.5Q207 55 257 55Z"/><path transform="translate(2999,1024) scale(1,-1) rotate(0.69)" d="M155 262V346H445V262Z"/><path transform="translate(3599,1021) scale(1,-1) rotate(0.49)" d="M164 698V279Q164 228 167.0 188.0Q170 148 183.0 119.5Q196 91 223.5 76.0Q251 61 300 61Q349 61 376.5 76.0Q404 91 417.0 119.5Q430 148 433.0 188.0Q436 228 436 279V698H520V299Q520 221 512.5 163.0Q505 105 481.5 66.0Q458 27 414.5 7.5Q371 -12 300 -12Q229 -12 185.5 7.5Q142 27 118.5 66.0Q95 105 87.5 163.0Q80 221 80 299V698Z"/><path transform="translate(4203,1026) scale(1,-1) rotate(-0.47)" d="M83 68H257V448H73V516H257V622Q257 674 284.5 707.0Q312 740 371 740H544V672H337V516H544V448H337V68H521V0H83Z"/><path transform="translate(4803,1024) scale(1,-1) rotate(0.18)" d="M309 -12Q253 -12 208.5 7.0Q164 26 132.5 61.5Q101 97 84.0 146.5Q67 196 67 257Q67 319 84.5 369.0Q102 419 133.0 454.5Q164 490 207.5 509.0Q251 528 304 528Q356 528 398.5 509.0Q441 490 471.0 456.5Q501 423 517.0 377.0Q533 331 533 276V238H151V214Q151 180 162.0 151.0Q173 122 193.5 101.0Q214 80 243.5 68.5Q273 57 309 57Q361 57 399.0 81.0Q437 105 457 147L516 107Q493 55 439.5 21.5Q386 -12 309 -12ZM304 462Q271 462 243.0 450.0Q215 438 194.5 417.0Q174 396 162.5 367.5Q151 339 151 305V298H447V309Q447 343 436.5 371.0Q426 399 407.5 419.5Q389 440 362.5 451.0Q336 462 304 462Z"/><path transform="translate(5401,1029) scale(1,-1) rotate(0.03)" d="M77 68H228V448H77V516H308V386H313Q329 447 373.5 481.5Q418 516 487 516H559V436H462Q393 436 350.5 396.0Q308 356 308 291V68H508V0H77Z"/><path transform="translate(6601,1030) scale(1,-1) rotate(-0.19)" d="M501 625H189L169 358H176Q202 393 234.0 413.5Q266 434 322 434Q368 434 406.5 419.5Q445 405 473.0 377.0Q501 349 517.0 309.5Q533 270 533 219Q533 168 517.0 125.5Q501 83 470.0 52.5Q439 22 395.0 5.0Q351 -12 295 -12Q251 -12 216.5 -2.0Q182 8 155.5 25.0Q129 42 109.0 63.0Q89 84 73 107L136 155Q150 134 164.5 117.0Q179 100 198.0 87.5Q217 75 241.0 68.0Q265 61 297 61Q369 61 407.5 100.0Q446 139 446 208V216Q446 285 407.0 324.0Q368 363 295 363Q245 363 217.5 346.0Q190 329 167 304L96 314L121 698H501Z"/><path transform="translate(-1,2523) scale(1,-1) rotate(-0.07)" d="M85 0V73H285V636H278L102 472L53 525L238 698H369V73H553V0Z"/><path transform="translate(604,2521) scale(1,-1) rotate(-0.04)" d="M300 -12Q236 -12 190.0 12.5Q144 37 114.0 83.0Q84 129 70.0 196.0Q56 263 56 349Q56 434 70.0 501.5Q84 569 114.0 615.0Q144 661 190.0 685.5Q236 710 300 710Q364 710 410.0 685.5Q456 661 486.0 615.0Q516 569 530.0 501.5Q544 434 544 349Q544 263 530.0 196.0Q516 129 486.0 83.0Q456 37 410.0 12.5Q364 -12 300 -12ZM300 61Q342 61 372.0 77.5Q402 94 420.5 124.0Q439 154 448.0 196.5Q457 239 457 292V406Q457 458 448.0 501.0Q439 544 420.5 574.0Q402 604 372.0 620.5Q342 637 300 637Q258 637 228.0 620.5Q198 604 179.5 574.0Q161 544 152.0 501.0Q143 458 143 406V292Q143 239 152.0 196.5Q161 154 179.5 124.0Q198 94 228.0 77.5Q258 61 300 61ZM300 290Q265 290 251.5 304.0Q238 318 238 338V360Q238 380 251.5 394.0Q265 408 300 408Q335 408 348.5 394.0Q362 380 362 360V338Q362 318 348.5 304.0Q335 290 300 290Z"/><path transform="translate(1196,2531) scale(1,-1) rotate(-0.47)" d="M501 625H189L169 358H176Q202 393 234.0 413.5Q266 434 322 434Q368 434 406.5 419.5Q445 405 473.0 377.0Q501 349 517.0 309.5Q533 270 533 219Q533 168 517.0 125.5Q501 83 470.0 52.5Q439 22 395.0 5.0Q351 -12 295 -12Q251 -12 216.5 -2.0Q182 8 155.5 25.0Q129 42 109.0 63.0Q89 84 73 107L136 155Q150 134 164.5 117.0Q179 100 198.0 87.5Q217 75 241.0 68.0Q265 61 297 61Q369 61 407.5 100.0Q446 139 446 208V216Q446 285 407.0 324.0Q368 363 295 363Q245 363 217.5 346.0Q190 329 167 304L96 314L121 698H501Z"/><path transform="translate(1803,2529) scale(1,-1) rotate(-0.59)" d="M501 625H189L169 358H176Q202 393 234.0 413.5Q266 434 322 434Q368 434 406.5 419.5Q445 405 473.0 377.0Q501 349 517.0 309.5Q533 270 533 219Q533 168 517.0 125.5Q501 83 470.0 52.5Q439 22 395.0 5.0Q351 -12 295 -12Q251 -12 216.5 -2.0Q182 8 155.5 25.0Q129 42 109.0 63.0Q89 84 73 107L136 155Q150 134 164.5 117.0Q179 100 198.0 87.5Q217 75 241.0 68.0Q265 61 297 61Q369 61 407.5 100.0Q446 139 446 208V216Q446 285 407.0 324.0Q368 363 295 363Q245 363 217.5 346.0Q190 329 167 304L96 314L121 698H501Z"/><path transform="translate(2398,2529) scale(1,-1) rotate(-0.71)" d="M501 625H189L169 358H176Q202 393 234.0 413.5Q266 434 322 434Q368 434 406.5 419.5Q445 405 473.0 377.0Q501 349 517.0 309.5Q533 270 533 219Q533 168 517.0 125.5Q501 83 470.0 52.5Q439 22 395.0 5.0Q351 -12 295 -12Q251 -12 216.5 -2.0Q182 8 155.5 25.0Q129 42 109.0 63.0Q89 84 73 107L136 155Q150 134 164.5 117.0Q179 100 198.0 87.5Q217 75 241.0 68.0Q265 61 297 61Q369 61 407.5 100.0Q446 139 446 208V216Q446 285 407.0 324.0Q368 363 295 363Q245 363 217.5 346.0Q190 329 167 304L96 314L121 698H501Z"/><path transform="translate(3595,2524) scale(1,-1) rotate(-0.69)" d="M88 698H325Q415 698 466.0 649.0Q517 600 517 518Q517 455 486.5 419.0Q456 383 408 368V365Q467 351 505.0 312.5Q543 274 543 201Q543 159 529.0 122.0Q515 85 489.5 58.0Q464 31 429.5 15.5Q395 0 355 0H88ZM330 73Q388 73 421.0 99.0Q454 125 454 179V220Q454 273 421.0 299.5Q388 326 330 326H172V73ZM316 395Q369 395 399.0 418.5Q429 442 429 490V529Q429 577 399.0 601.0Q369 625 316 625H172V395Z"/><path transform="translate(4199,2531) scale(1,-1) rotate(-0.23)" d="M309 -12Q253 -12 208.5 7.0Q164 26 132.5 61.5Q101 97 84.0 146.5Q67 196 67 257Q67 319 84.5 369.0Q102 419 133.0 454.5Q164 490 207.5 509.0Q251 528 304 528Q356 528 398.5 509.0Q441 490 471.0 456.5Q501 423 517.0 377.0Q533 331 533 276V238H151V214Q151 180 162.0 151.0Q173 122 193.5 101.0Q214 80 243.5 68.5Q273 57 309 57Q361 57 399.0 81.0Q437 105 457 147L516 107Q493 55 439.5 21.5Q386 -12 309 -12ZM304 462Q271 462 243.0 450.0Q215 438 194.5 417.0Q174 396 162.5 367.5Q151 339 151 305V298H447V309Q447 343 436.5 371.0Q426 399 407.5 419.5Q389 440 362.5 451.0Q336 462 304 462Z"/><path transform="translate(4802,2528) scale(1,-1) rotate(0.60)" d="M77 68H228V448H77V516H308V386H313Q329 447 373.5 481.5Q418 516 487 516H559V436H462Q393 436 350.5 396.0Q308 356 308 291V68H508V0H77Z"/><path transform="translate(5404,2521) scale(1,-1) rotate(0.57)" d="M80 68H260V672H80V740H340V68H520V0H80Z"/><path transform="translate(6004,2521) scale(1,-1) rotate(-0.64)" d="M332 630Q297 630 283.0 644.5Q269 659 269 681V697Q269 719 283.0 733.5Q297 748 332 748Q367 748 381.0 733.5Q395 719 395 697V681Q395 659 381.0 644.5Q367 630 332 630ZM106 68H292V448H106V516H372V68H546V0H106Z"/><path transform="translate(6599,2530) scale(1,-1) rotate(-0.08)" d="M98 0V516H178V432H182Q190 451 202.0 468.5Q214 486 231.5 499.0Q249 512 273.0 520.0Q297 528 329 528Q410 528 459.0 476.5Q508 425 508 331V0H428V317Q428 388 397.0 422.5Q366 457 306 457Q282 457 259.0 451.0Q236 445 218.0 433.0Q200 421 189.0 402.0Q178 383 178 358V0Z"/><path transform="translate(2,4032) scale(1,-1) rotate(0.51)" d="M95 698H290Q418 698 481.0 610.0Q544 522 544 349Q544 176 481.0 88.0Q418 0 290 0H95ZM286 73Q370 73 412.5 131.0Q455 189 455 295V403Q455 509 412.5 567.0Q370 625 286 625H179V73Z"/><path transform="translate(597,4027) scale(1,-1) rotate(0.47)" d="M309 -12Q253 -12 208.5 7.0Q164 26 132.5 61.5Q101 97 84.0 146.5Q67 196 67 257Q67 319 84.5 369.0Q102 419 133.0 454.5Q164 490 207.5 509.0Q251 528 304 528Q356 528 398.5 509.0Q441 490 471.0 456.5Q501 423 517.0 377.0Q533 331 533 276V238H151V214Q151 180 162.0 151.0Q173 122 193.5 101.0Q214 80 243.5 68.5Q273 57 309 57Q361 57 399.0 81.0Q437 105 457 147L516 107Q493 55 439.5 21.5Q386 -12 309 -12ZM304 462Q271 462 243.0 450.0Q215 438 194.5 417.0Q174 396 162.5 367.5Q151 339 151 305V298H447V309Q447 343 436.5 371.0Q426 399 407.5 419.5Q389 440 362.5 451.0Q336 462 304 462Z"/><path transform="translate(1196,4030) scale(1,-1) rotate(-0.13)" d="M422 84H418Q410 65 398.0 47.5Q386 30 368.5 17.0Q351 4 327.0 -4.0Q303 -12 271 -12Q190 -12 141.0 39.5Q92 91 92 185V516H172V199Q172 128 203.0 93.5Q234 59 294 59Q318 59 341.0 65.0Q364 71 382.0 83.0Q400 95 411.0 113.5Q422 132 422 158V516H502V0H422Z"/><path transform="translate(1798,4028) scale(1,-1) rotate(-0.32)" d="M325 0Q266 0 238.5 33.0Q211 66 211 118V448H39V516H167Q193 516 203.5 526.5Q214 537 214 563V698H291V516H526V448H291V68H526V0Z"/><path transform="translate(2403,4026) scale(1,-1) rotate(0.49)" d="M306 -12Q225 -12 166.5 15.5Q108 43 67 89L121 136Q158 97 202.0 76.0Q246 55 308 55Q368 55 406.5 76.5Q445 98 445 144Q445 164 437.5 177.5Q430 191 417.0 199.0Q404 207 388.0 211.5Q372 216 354 219L273 231Q246 235 214.5 242.0Q183 249 157.0 264.5Q131 280 113.5 306.0Q96 332 96 374Q96 413 111.5 441.5Q127 470 155.0 489.5Q183 509 221.0 518.5Q259 528 304 528Q374 528 425.5 506.0Q477 484 514 445L462 396Q453 407 439.5 418.5Q426 430 406.5 439.5Q387 449 361.0 455.0Q335 461 301 461Q240 461 207.5 440.0Q175 419 175 379Q175 359 182.5 345.5Q190 332 203.0 324.0Q216 316 232.5 311.5Q249 307 266 304L347 292Q375 288 406.0 281.0Q437 274 463.0 258.5Q489 243 506.5 217.0Q524 191 524 149Q524 72 464.5 30.0Q405 -12 306 -12Z"/><path transform="translate(2996,4026) scale(1,-1) rotate(0.69)" d="M318 -12Q262 -12 218.5 7.5Q175 27 145.0 62.0Q115 97 99.5 147.0Q84 197 84 258Q84 319 100.0 369.0Q116 419 146.0 454.5Q176 490 219.0 509.0Q262 528 317 528Q392 528 439.0 495.0Q486 462 508 409L444 375Q430 415 397.5 437.0Q365 459 317 459Q282 459 254.5 447.5Q227 436 208.0 415.0Q189 394 179.5 365.0Q170 336 170 302V214Q170 180 179.5 151.0Q189 122 208.0 101.0Q227 80 255.0 68.5Q283 57 319 57Q371 57 405.0 81.0Q439 105 459 147L516 108Q493 56 444.5 22.0Q396 -12 318 -12Z"/><path transform="translate(3600,4029) scale(1,-1) rotate(-0.42)" d="M98 740H178V432H182Q190 451 202.0 468.5Q214 486 231.5 499.0Q249 512 273.0 520.0Q297 528 329 528Q410 528 459.0 476.5Q508 425 508 331V0H428V317Q428 388 397.0 422.5Q366 457 306 457Q282 457 259.0 451.0Q236 445 218.0 433.0Q200 421 189.0 402.0Q178 383 178 358V0H98Z"/><path transform="translate(4204,4023) scale(1,-1) rotate(0.13)" d="M80 68H260V672H80V740H340V68H520V0H80Z"/><path transform="translate(4803,4030) scale(1,-1) rotate(0.15)" d="M495 0Q448 0 428.0 24.0Q408 48 403 84H398Q381 39 343.5 13.5Q306 -12 243 -12Q162 -12 114.0 30.0Q66 72 66 145Q66 217 118.5 256.0Q171 295 288 295H398V346Q398 403 366.0 431.5Q334 460 275 460Q223 460 190.0 439.5Q157 419 137 384L83 424Q93 444 110.0 463.0Q127 482 152.0 496.5Q177 511 209.0 519.5Q241 528 280 528Q371 528 424.5 482.0Q478 436 478 354V70H550V0ZM257 55Q288 55 313.5 62.5Q339 70 358.0 82.5Q377 95 387.5 112.5Q398 130 398 150V235H288Q216 235 183.0 215.0Q150 195 150 157V136Q150 96 178.5 75.5Q207 55 257 55Z"/><path transform="translate(5405,4028) scale(1,-1) rotate(-0.23)" d="M98 0V516H178V432H182Q190 451 202.0 468.5Q214 486 231.5 499.0Q249 512 273.0 520.0Q297 528 329 528Q410 528 459.0 476.5Q508 425 508 331V0H428V317Q428 388 397.0 422.5Q366 457 306 457Q282 457 259.0 451.0Q236 445 218.0 433.0Q200 421 189.0 402.0Q178 383 178 358V0Z"/><path transform="translate(6004,4026) scale(1,-1) rotate(0.13)" d="M425 84H421Q371 -12 262 -12Q167 -12 113.5 59.0Q60 130 60 258Q60 386 113.5 457.0Q167 528 262 528Q371 528 421 432H425V740H505V0H425ZM293 59Q320 59 344.0 66.0Q368 73 386.0 86.5Q404 100 414.5 119.5Q425 139 425 165V351Q425 377 414.5 396.5Q404 416 386.0 429.5Q368 443 344.0 450.0Q320 457 293 457Q223 457 184.5 414.5Q146 372 146 302V214Q146 144 184.5 101.5Q223 59 293 59Z"/></g></svg>
