<svg viewBox="0 0 512 512" xmlns="http://www.w3.org/2000/svg"><rect width="512" height="512" fill="#2a3666"/><g transform="translate(32.0,316.3) scale(0.3676,-0.3676)" fill="#f7f8fb"><path transform="translate(0,0)" d="M79 516H188V428H194Q217 475 255.0 501.5Q293 528 350 528Q441 528 495.0 460.0Q549 392 549 258Q549 124 495.0 56.0Q441 -12 350 -12Q293 -12 255.0 14.5Q217 41 194 88H188V-200H79ZM305 77Q367 77 400.5 115.0Q434 153 434 216V300Q434 363 400.5 401.0Q367 439 305 439Q281 439 260.0 433.0Q239 427 223.0 415.0Q207 403 197.5 385.5Q188 368 188 344V172Q188 148 197.5 130.5Q207 113 223.0 101.0Q239 89 260.0 83.0Q281 77 305 77Z"/><path transform="translate(560,0)" d="M20 516H113L163 82H172L249 516H355L431 82H440L491 516H580L508 0H374L305 400H296L226 0H92Z"/></g></svg>
